<svg width="2094" height="484" viewBox="0 0 2094 484" fill="none" xmlns="http://www.w3.org/2000/svg">
<path d="M101.323 168.851C86.3038 168.837 71.4709 172.172 57.9043 178.615V192.981C57.9061 230.366 72.3771 266.3 98.285 293.252C124.193 320.204 159.527 336.084 196.883 337.562C200.695 326.731 202.637 315.33 202.625 303.848V270.154C202.625 243.287 191.952 217.52 172.954 198.522C153.956 179.524 128.19 168.851 101.323 168.851Z" fill="#B6BCF7"/>
<path d="M202.625 0C183.618 -1.81652e-07 164.798 3.74398 147.238 11.0181C129.679 18.2923 113.724 28.9541 100.285 42.3948C86.8461 55.8355 76.1865 71.7918 68.9148 89.3524C61.643 106.913 57.9017 125.734 57.9043 144.741V178.615C73.3465 171.296 90.3892 168.001 107.447 169.037C124.505 170.073 141.023 175.407 155.466 184.542C169.908 193.677 181.805 206.317 190.051 221.285C198.296 236.254 202.622 253.064 202.625 270.154V303.848C202.628 315.303 200.686 326.676 196.883 337.482C198.884 337.482 200.704 337.622 202.625 337.622C241.007 337.622 277.818 322.375 304.958 295.234C332.099 268.094 347.346 231.283 347.346 192.901V144.741C347.349 125.734 343.607 106.913 336.335 89.3524C329.064 71.7918 318.404 55.8355 304.965 42.3948C291.526 28.9541 275.572 18.2923 258.012 11.0181C240.452 3.74398 221.632 -1.81652e-07 202.625 0Z" fill="#434EE1"/>
<path d="M57.9043 192.981V178.615C40.5806 186.831 25.9436 199.794 15.6937 215.997C5.44387 232.201 0.00189138 250.98 0 270.154V303.848C0.0114404 327.753 8.47507 350.885 23.8945 369.153C39.314 387.422 60.6961 399.649 84.2605 403.675C107.825 407.701 132.054 403.265 152.663 391.151C173.273 379.038 188.936 360.028 196.883 337.482C159.541 336.004 124.219 320.136 98.3128 293.201C72.407 266.266 57.9268 230.352 57.9043 192.981Z" fill="#0A1567"/>
<path d="M578.263 129.975C572.793 119.816 564.439 111.503 554.253 106.085C543.675 100.282 530.596 97.381 515.016 97.381H438.984V300.006H475.72V231.537H514.496C530.143 231.537 543.302 228.656 553.973 222.894C564.235 217.533 572.675 209.247 578.223 199.084C583.604 188.36 586.405 176.527 586.405 164.529C586.405 152.531 583.604 140.699 578.223 129.975H578.263ZM544.829 183.557C541.986 189.145 537.476 193.711 531.923 196.623C524.977 200.039 517.289 201.669 509.554 201.365H475.72V128.054H509.354C517.119 127.744 524.843 129.323 531.863 132.656C537.429 135.449 541.967 139.931 544.829 145.461C547.729 151.37 549.169 157.888 549.031 164.469C549.16 171.075 547.72 177.617 544.829 183.557Z" fill="#0C106C"/>
<path d="M642.85 303.087C633.907 303.232 625.038 301.458 616.839 297.885C609.404 294.634 603.077 289.288 598.631 282.499C593.982 274.962 591.664 266.219 591.969 257.368C591.692 249.989 593.326 242.662 596.711 236.099C599.798 230.567 604.265 225.928 609.676 222.634C615.431 219.147 621.686 216.563 628.224 214.97C635.267 213.194 642.428 211.924 649.653 211.169C658.55 210.248 665.773 209.408 671.322 208.648C675.555 208.282 679.671 207.071 683.427 205.086C684.684 204.28 685.702 203.151 686.375 201.817C687.047 200.483 687.349 198.993 687.249 197.503V196.923C687.249 189.46 685.028 183.697 680.606 179.595C676.184 175.494 669.821 173.473 661.518 173.473C652.754 173.473 645.811 175.38 640.689 179.195C635.941 182.559 632.332 187.292 630.345 192.761L596.911 188.019C599.243 179.306 603.737 171.323 609.976 164.809C616.206 158.479 623.823 153.684 632.225 150.803C641.579 147.57 651.422 145.979 661.318 146.101C668.682 146.11 676.02 146.969 683.187 148.662C690.259 150.303 696.99 153.167 703.075 157.126C709.17 161.162 714.152 166.667 717.561 173.133C721.477 180.95 723.369 189.625 723.064 198.363V300.066H688.669V279.137H687.489C682.416 288.809 673.875 296.206 663.579 299.846C656.917 302.152 649.897 303.25 642.85 303.087ZM652.154 276.756C658.653 276.927 665.09 275.447 670.862 272.454C675.892 269.817 680.116 265.87 683.087 261.03C685.932 256.353 687.421 250.977 687.389 245.503V227.496C685.666 228.701 683.732 229.57 681.686 230.057C678.744 230.889 675.758 231.557 672.742 232.057C669.441 232.658 666.18 233.178 662.938 233.638L654.535 234.819C649.631 235.446 644.817 236.641 640.189 238.38C636.322 239.785 632.879 242.154 630.185 245.263C627.284 249.259 626.035 254.219 626.699 259.113C627.362 264.006 629.886 268.455 633.746 271.534C639.191 275.143 645.625 276.968 652.154 276.756Z" fill="#0C106C"/>
<path d="M752.256 300.006V148.042H786.99V173.373H788.571C790.936 165.184 795.972 158.021 802.877 153.024C809.643 148.211 817.764 145.675 826.067 145.781C828.068 145.781 830.269 145.781 832.75 146.021C834.823 146.148 836.888 146.395 838.932 146.762V179.796C836.592 179.103 834.195 178.621 831.769 178.355C828.631 177.941 825.47 177.727 822.305 177.715C816.195 177.613 810.159 179.059 804.758 181.917C799.702 184.608 795.475 188.627 792.533 193.541C789.503 198.733 787.959 204.658 788.071 210.669V300.006H752.256Z" fill="#0C106C"/>
<path d="M918.506 270.534C917.506 270.794 916.085 271.094 914.204 271.414C912.186 271.733 910.144 271.873 908.102 271.834C905.333 271.87 902.58 271.402 899.978 270.454C897.465 269.468 895.382 267.625 894.096 265.252C892.422 261.828 891.657 258.031 891.875 254.227V175.794H921.888V148.042H891.875V111.627H856.08V260.229C855.638 268.57 857.73 276.85 862.083 283.979C866.212 290.278 872.166 295.165 879.15 297.985C886.84 301.071 895.103 302.47 903.38 302.087C907.723 302.049 912.052 301.586 916.305 300.706C919.055 300.12 921.774 299.392 924.449 298.526L918.506 270.534Z" fill="#0C106C"/>
<path d="M986.134 210.969V300.006H950.319V148.042H984.554V173.793H986.334C989.687 165.462 995.547 158.38 1003.1 153.525C1010.78 148.496 1020.3 145.988 1031.65 146.001C1041.24 145.777 1050.71 148.097 1059.11 152.724C1066.98 157.265 1073.32 164.05 1077.31 172.213C1081.88 181.881 1084.07 192.5 1083.7 203.186V299.946H1047.88V208.788C1047.88 198.624 1045.26 190.674 1040.02 184.938C1034.77 179.202 1027.49 176.334 1018.15 176.334C1012.34 176.189 1006.59 177.569 1001.48 180.336C996.621 183.092 992.666 187.2 990.096 192.161C987.241 198.006 985.879 204.468 986.134 210.969Z" fill="#0C106C"/>
<path d="M1249 222.834C1249.27 211.101 1247.39 199.417 1243.46 188.359C1240.19 179.381 1234.99 171.227 1228.24 164.469C1221.95 158.243 1214.39 153.463 1206.07 150.463C1197.55 147.431 1188.56 145.907 1179.52 145.961C1166.19 145.661 1153.06 149.129 1141.62 155.966C1130.81 162.687 1122.12 172.338 1116.57 183.797C1110.38 196.641 1107.32 210.763 1107.63 225.015C1107.63 240.915 1110.59 254.72 1116.53 266.432C1122.16 277.758 1131.02 287.158 1142 293.443C1153.04 299.806 1166.19 302.987 1181.44 302.987C1192.17 303.176 1202.84 301.344 1212.89 297.585C1221.52 294.363 1229.27 289.146 1235.5 282.359C1241.39 275.795 1245.52 267.844 1247.5 259.249L1214.05 255.487C1212.59 259.586 1210.19 263.281 1207.03 266.272C1203.87 269.212 1200.12 271.454 1196.04 272.855C1191.49 274.39 1186.7 275.141 1181.9 275.076C1174.78 275.249 1167.75 273.522 1161.53 270.074C1155.67 266.711 1150.95 261.683 1147.96 255.627C1144.68 248.83 1143.03 241.365 1143.12 233.818H1248.98L1249 222.834ZM1143.22 209.688C1143.52 203.886 1145.09 198.221 1147.84 193.101C1150.86 187.439 1155.31 182.666 1160.75 179.255C1166.53 175.659 1173.23 173.817 1180.04 173.953C1186.35 173.83 1192.58 175.442 1198.04 178.615C1203.17 181.667 1207.36 186.061 1210.17 191.32C1213.14 196.984 1214.66 203.293 1214.61 209.688H1143.22Z" fill="#0C106C"/>
<path d="M1275.32 300.006V148.042H1310.05V173.373H1311.63C1313.98 165.18 1319.01 158.014 1325.92 153.024C1332.7 148.24 1340.83 145.732 1349.13 145.861C1351.13 145.861 1353.33 145.861 1355.81 146.101C1357.88 146.231 1359.95 146.478 1361.99 146.842V179.795C1359.65 179.104 1357.24 178.622 1354.81 178.355C1351.68 177.94 1348.52 177.726 1345.37 177.715C1339.25 177.615 1333.21 179.06 1327.8 181.916C1322.75 184.609 1318.53 188.628 1315.59 193.541C1312.55 198.729 1311.01 204.657 1311.13 210.668V300.006H1275.32Z" fill="#0C106C"/>
<path d="M1495.43 153.084C1495.12 149.066 1493.91 145.168 1491.9 141.676C1489.89 138.183 1487.12 135.183 1483.8 132.896C1476.97 128.094 1468.12 125.686 1457.23 125.673C1450.5 125.51 1443.81 126.686 1437.54 129.134C1432.58 131.068 1428.23 134.319 1424.98 138.538C1422.09 142.47 1420.53 147.224 1420.54 152.104C1420.43 155.964 1421.45 159.772 1423.46 163.069C1425.5 166.261 1428.24 168.955 1431.46 170.952C1434.97 173.17 1438.72 174.976 1442.65 176.334C1446.7 177.785 1450.82 179.008 1455.01 179.996L1474 184.738C1481.57 186.495 1488.96 188.912 1496.11 191.961C1502.99 194.866 1509.42 198.733 1515.22 203.446C1520.82 208.012 1525.39 213.713 1528.62 220.173C1532.06 227.325 1533.75 235.189 1533.56 243.122C1533.75 254.253 1530.54 265.176 1524.36 274.435C1517.81 283.835 1508.69 291.149 1498.09 295.504C1486.64 300.573 1472.81 303.101 1456.59 303.087C1442.57 303.407 1428.62 300.918 1415.57 295.764C1404.67 291.405 1395.25 283.984 1388.46 274.395C1381.97 265.058 1378.46 253.647 1377.94 240.161H1413.95C1414.25 246.567 1416.54 252.722 1420.5 257.768C1424.46 262.549 1429.63 266.172 1435.48 268.253C1442.17 270.653 1449.23 271.825 1456.33 271.714C1463.51 271.856 1470.64 270.634 1477.36 268.113C1482.88 266.078 1487.78 262.628 1491.55 258.109C1494.98 253.793 1496.84 248.436 1496.81 242.922C1496.91 238.13 1495.25 233.468 1492.15 229.817C1488.61 226.006 1484.27 223.033 1479.44 221.113C1473.27 218.527 1466.9 216.426 1460.39 214.83L1437.34 208.828C1420.63 204.546 1407.45 198.03 1397.81 189.28C1388.16 180.529 1383.33 168.904 1383.32 154.405C1383.1 143.176 1386.52 132.177 1393.07 123.052C1399.88 113.819 1409.05 106.589 1419.62 102.123C1431.62 96.9849 1444.58 94.4351 1457.63 94.6398C1470.64 94.369 1483.56 96.922 1495.49 102.123C1505.71 106.596 1514.54 113.735 1521.06 122.792C1527.29 131.682 1530.64 142.269 1530.66 153.124L1495.43 153.084Z" fill="#0C106C"/>
<path d="M1624.8 270.534C1623.8 270.794 1622.38 271.094 1620.5 271.414C1618.48 271.733 1616.44 271.873 1614.4 271.834C1611.63 271.87 1608.88 271.402 1606.28 270.454C1603.76 269.468 1601.68 267.625 1600.39 265.252C1598.72 261.828 1597.95 258.031 1598.17 254.227V175.794H1628.18V148.042H1598.17V111.627H1562.38V148.042H1540.71V175.794H1562.38V260.229C1561.93 268.57 1564.03 276.85 1568.38 283.979C1572.51 290.278 1578.46 295.165 1585.45 297.985C1593.14 301.071 1601.4 302.47 1609.68 302.087C1614.02 302.049 1618.35 301.586 1622.6 300.706C1625.36 300.117 1628.08 299.389 1630.77 298.526L1624.8 270.534Z" fill="#0C106C"/>
<path d="M1695.91 303.087C1686.97 303.232 1678.1 301.458 1669.9 297.885C1662.47 294.634 1656.14 289.288 1651.69 282.499C1647.04 274.963 1644.71 266.22 1645.01 257.368C1644.73 249.986 1646.37 242.657 1649.77 236.099C1652.86 230.572 1657.32 225.935 1662.72 222.633C1668.48 219.15 1674.74 216.566 1681.29 214.97C1688.32 213.196 1695.48 211.926 1702.7 211.169C1711.61 210.248 1718.83 209.408 1724.36 208.648C1728.6 208.285 1732.73 207.074 1736.49 205.086C1737.74 204.277 1738.76 203.147 1739.43 201.814C1740.09 200.48 1740.39 198.991 1740.29 197.503V196.923C1740.29 189.46 1738.09 183.697 1733.67 179.595C1729.25 175.494 1722.88 173.473 1714.58 173.473C1705.8 173.473 1698.86 175.38 1693.75 179.195C1689 182.554 1685.39 187.288 1683.41 192.761L1649.97 188.019C1652.3 179.307 1656.79 171.324 1663.02 164.809C1669.26 158.478 1676.88 153.684 1685.29 150.803C1694.66 147.548 1704.52 145.944 1714.44 146.061C1721.8 146.07 1729.14 146.929 1736.31 148.622C1743.38 150.267 1750.11 153.131 1756.2 157.086C1762.29 161.122 1767.27 166.627 1770.68 173.093C1774.6 180.91 1776.49 189.585 1776.19 198.323V300.026H1741.73V279.137H1740.45C1738.11 283.58 1735.02 287.582 1731.31 290.962C1727.02 294.844 1722.01 297.836 1716.56 299.766C1709.93 302.09 1702.94 303.215 1695.91 303.087ZM1705.22 276.756C1711.72 276.924 1718.15 275.444 1723.92 272.454C1728.95 269.816 1733.17 265.869 1736.13 261.03C1738.98 256.357 1740.47 250.979 1740.43 245.503V227.496C1738.72 228.701 1736.79 229.571 1734.75 230.057C1731.8 230.886 1728.81 231.554 1725.79 232.057C1722.5 232.658 1719.22 233.178 1716 233.638L1707.6 234.819C1702.69 235.446 1697.88 236.641 1693.25 238.38C1689.38 239.785 1685.94 242.154 1683.25 245.263C1680.35 249.259 1679.1 254.219 1679.76 259.112C1680.42 264.006 1682.95 268.455 1686.81 271.534C1692.25 275.145 1698.69 276.971 1705.22 276.756Z" fill="#0C106C"/>
<path d="M1868.71 302.987C1853.53 302.987 1840.51 299.653 1829.67 292.983C1818.84 286.363 1810.15 276.763 1804.64 265.331C1798.84 252.501 1795.85 238.579 1795.88 224.499C1795.9 210.419 1798.94 196.507 1804.78 183.697C1810.36 172.253 1819.1 162.644 1829.97 156.006C1840.81 149.336 1853.66 146.001 1868.51 146.001C1879.81 145.784 1891.01 148.102 1901.3 152.784C1910.6 156.992 1918.55 163.686 1924.28 172.128C1930.02 180.57 1933.31 190.431 1933.79 200.624H1899.56C1898.34 193.602 1894.89 187.16 1889.71 182.257C1884.55 177.361 1877.64 174.907 1868.99 174.893C1862.1 174.765 1855.34 176.824 1849.7 180.776C1843.88 185.058 1839.4 190.909 1836.79 197.643C1833.53 206.03 1831.97 214.979 1832.19 223.974C1831.97 233.068 1833.51 242.117 1836.73 250.625C1839.3 257.432 1843.75 263.37 1849.56 267.753C1854.45 271.069 1860.1 273.082 1865.99 273.601C1871.88 274.119 1877.8 273.125 1883.19 270.714C1887.38 268.711 1891 265.7 1893.74 261.95C1896.72 257.784 1898.71 252.994 1899.56 247.944H1933.79C1933.14 258.118 1929.87 267.952 1924.31 276.496C1918.74 284.861 1911.01 291.561 1901.94 295.884C1891.56 300.793 1880.18 303.224 1868.71 302.987Z" fill="#0C106C"/>
<path d="M2051.16 299.106H2094L2031.61 212.75L2090.54 147.142H2048.68L1994.06 208.188H1991.6V111.627H1955.78V299.106H1991.6V248.024L2004.62 234.058L2051.16 299.106Z" fill="#0C106C"/>
<path d="M1514.67 483.938C1513.02 483.938 1511.52 483.802 1510.17 483.531C1508.81 483.285 1507.8 483.014 1507.14 482.719L1509.8 473.67C1511.82 474.212 1513.61 474.446 1515.19 474.372C1516.77 474.298 1518.16 473.707 1519.36 472.599C1520.59 471.491 1521.68 469.682 1522.61 467.17L1523.98 463.403L1503.22 405.938H1515.04L1529.41 449.96H1530L1544.37 405.938H1556.22L1532.84 470.236C1531.76 473.19 1530.38 475.689 1528.71 477.733C1527.03 479.801 1525.04 481.352 1522.72 482.386C1520.41 483.42 1517.73 483.938 1514.67 483.938Z" fill="#333333"/>
<path d="M1460.69 428.983V462.665H1449.65V405.938H1460.25V415.17H1460.95C1462.25 412.167 1464.3 409.754 1467.08 407.932C1469.89 406.11 1473.42 405.199 1477.68 405.199C1481.54 405.199 1484.93 406.011 1487.84 407.636C1490.74 409.237 1492.99 411.625 1494.59 414.801C1496.19 417.977 1496.99 421.904 1496.99 426.582V462.665H1485.95V427.912C1485.95 423.8 1484.88 420.587 1482.74 418.273C1480.6 415.934 1477.65 414.764 1473.91 414.764C1471.35 414.764 1469.07 415.318 1467.08 416.426C1465.11 417.534 1463.55 419.159 1462.39 421.301C1461.26 423.419 1460.69 425.979 1460.69 428.983Z" fill="#333333"/>
<path d="M1409.03 463.92C1405.43 463.92 1402.18 463.256 1399.28 461.926C1396.37 460.572 1394.07 458.615 1392.37 456.054C1390.7 453.493 1389.86 450.354 1389.86 446.636C1389.86 443.436 1390.47 440.801 1391.7 438.733C1392.94 436.665 1394.6 435.027 1396.69 433.821C1398.78 432.615 1401.12 431.704 1403.71 431.088C1406.29 430.473 1408.93 430.005 1411.61 429.685C1415.01 429.291 1417.77 428.971 1419.88 428.724C1422 428.454 1423.54 428.023 1424.5 427.432C1425.46 426.841 1425.94 425.881 1425.94 424.551V424.293C1425.94 421.067 1425.03 418.568 1423.21 416.795C1421.41 415.023 1418.73 414.136 1415.16 414.136C1411.44 414.136 1408.51 414.961 1406.37 416.611C1404.25 418.236 1402.78 420.045 1401.97 422.04L1391.59 419.676C1392.83 416.229 1394.62 413.447 1396.99 411.33C1399.37 409.188 1402.12 407.636 1405.22 406.676C1408.32 405.691 1411.59 405.199 1415.01 405.199C1417.27 405.199 1419.67 405.47 1422.21 406.011C1424.77 406.528 1427.16 407.489 1429.38 408.892C1431.62 410.295 1433.45 412.302 1434.88 414.912C1436.31 417.497 1437.02 420.858 1437.02 424.994V462.665H1426.24V454.909H1425.79C1425.08 456.337 1424.01 457.741 1422.58 459.119C1421.15 460.498 1419.32 461.643 1417.08 462.554C1414.84 463.465 1412.15 463.92 1409.03 463.92ZM1411.43 455.057C1414.48 455.057 1417.09 454.454 1419.26 453.247C1421.45 452.041 1423.11 450.465 1424.24 448.52C1425.4 446.55 1425.98 444.445 1425.98 442.205V434.892C1425.58 435.286 1424.82 435.655 1423.69 436C1422.58 436.32 1421.31 436.603 1419.88 436.849C1418.46 437.071 1417.06 437.28 1415.71 437.477C1414.36 437.65 1413.22 437.797 1412.31 437.92C1410.17 438.191 1408.21 438.647 1406.44 439.287C1404.69 439.927 1403.29 440.85 1402.23 442.057C1401.2 443.239 1400.68 444.814 1400.68 446.784C1400.68 449.517 1401.69 451.585 1403.71 452.989C1405.73 454.367 1408.3 455.057 1411.43 455.057Z" fill="#333333"/>
<path d="M1330.41 483.938V405.938H1341.19V415.134H1342.12C1342.76 413.952 1343.68 412.585 1344.89 411.034C1346.09 409.483 1347.77 408.129 1349.91 406.972C1352.05 405.79 1354.88 405.199 1358.4 405.199C1362.98 405.199 1367.07 406.356 1370.67 408.67C1374.26 410.985 1377.08 414.321 1379.12 418.679C1381.19 423.037 1382.23 428.281 1382.23 434.412C1382.23 440.543 1381.2 445.799 1379.16 450.182C1377.12 454.54 1374.31 457.901 1370.74 460.264C1367.17 462.603 1363.09 463.773 1358.51 463.773C1355.07 463.773 1352.25 463.194 1350.06 462.037C1347.89 460.88 1346.19 459.526 1344.96 457.974C1343.73 456.423 1342.78 455.045 1342.12 453.838H1341.45V483.938H1330.41ZM1341.23 434.301C1341.23 438.29 1341.81 441.786 1342.97 444.79C1344.12 447.794 1345.8 450.145 1347.99 451.844C1350.18 453.518 1352.86 454.355 1356.04 454.355C1359.34 454.355 1362.1 453.481 1364.31 451.733C1366.53 449.96 1368.2 447.56 1369.34 444.531C1370.49 441.503 1371.07 438.093 1371.07 434.301C1371.07 430.559 1370.51 427.198 1369.37 424.219C1368.26 421.24 1366.59 418.888 1364.35 417.165C1362.13 415.441 1359.36 414.58 1356.04 414.58C1352.84 414.58 1350.13 415.404 1347.92 417.054C1345.72 418.704 1344.06 421.006 1342.93 423.96C1341.8 426.915 1341.23 430.362 1341.23 434.301Z" fill="#333333"/>
<path d="M1240.58 462.665V405.938H1251.17V415.17H1251.88C1253.06 412.044 1254.99 409.606 1257.67 407.858C1260.36 406.085 1263.57 405.199 1267.31 405.199C1271.11 405.199 1274.28 406.085 1276.84 407.858C1279.43 409.631 1281.34 412.068 1282.57 415.17H1283.16C1284.51 412.142 1286.67 409.729 1289.62 407.932C1292.58 406.11 1296.1 405.199 1300.18 405.199C1305.33 405.199 1309.53 406.812 1312.78 410.037C1316.05 413.262 1317.69 418.125 1317.69 424.625V462.665H1306.65V425.659C1306.65 421.818 1305.6 419.036 1303.51 417.312C1301.41 415.589 1298.92 414.727 1296.01 414.727C1292.42 414.727 1289.62 415.835 1287.63 418.051C1285.63 420.242 1284.63 423.062 1284.63 426.509V462.665H1273.63V424.957C1273.63 421.88 1272.67 419.405 1270.75 417.534C1268.83 415.663 1266.33 414.727 1263.25 414.727C1261.16 414.727 1259.23 415.281 1257.45 416.389C1255.7 417.473 1254.29 418.987 1253.21 420.932C1252.15 422.877 1251.62 425.13 1251.62 427.69V462.665H1240.58Z" fill="#333333"/>
<path d="M1203.89 463.81C1198.57 463.81 1193.93 462.591 1189.96 460.153C1186 457.716 1182.92 454.306 1180.73 449.923C1178.54 445.541 1177.44 440.42 1177.44 434.56C1177.44 428.675 1178.54 423.529 1180.73 419.122C1182.92 414.715 1186 411.293 1189.96 408.855C1193.93 406.418 1198.57 405.199 1203.89 405.199C1209.2 405.199 1213.85 406.418 1217.81 408.855C1221.77 411.293 1224.85 414.715 1227.04 419.122C1229.23 423.529 1230.33 428.675 1230.33 434.56C1230.33 440.42 1229.23 445.541 1227.04 449.923C1224.85 454.306 1221.77 457.716 1217.81 460.153C1213.85 462.591 1209.2 463.81 1203.89 463.81ZM1203.92 454.54C1207.37 454.54 1210.23 453.629 1212.49 451.807C1214.76 449.985 1216.43 447.56 1217.51 444.531C1218.62 441.503 1219.18 438.167 1219.18 434.523C1219.18 430.903 1218.62 427.58 1217.51 424.551C1216.43 421.498 1214.76 419.048 1212.49 417.202C1210.23 415.355 1207.37 414.432 1203.92 414.432C1200.45 414.432 1197.57 415.355 1195.28 417.202C1193.02 419.048 1191.33 421.498 1190.22 424.551C1189.14 427.58 1188.6 430.903 1188.6 434.523C1188.6 438.167 1189.14 441.503 1190.22 444.531C1191.33 447.56 1193.02 449.985 1195.28 451.807C1197.57 453.629 1200.45 454.54 1203.92 454.54Z" fill="#333333"/>
<path d="M1169.3 411.625H1157.78C1157.34 409.163 1156.51 406.996 1155.31 405.125C1154.1 403.254 1152.62 401.666 1150.87 400.361C1149.13 399.056 1147.17 398.071 1145 397.406C1142.86 396.741 1140.58 396.409 1138.17 396.409C1133.81 396.409 1129.91 397.505 1126.46 399.696C1123.04 401.887 1120.33 405.1 1118.34 409.335C1116.37 413.57 1115.38 418.741 1115.38 424.847C1115.38 431.002 1116.37 436.197 1118.34 440.432C1120.33 444.667 1123.05 447.867 1126.5 450.034C1129.95 452.201 1133.82 453.284 1138.13 453.284C1140.52 453.284 1142.79 452.964 1144.93 452.324C1147.09 451.659 1149.05 450.687 1150.8 449.406C1152.55 448.126 1154.03 446.563 1155.23 444.716C1156.46 442.845 1157.31 440.703 1157.78 438.29L1169.3 438.327C1168.69 442.045 1167.49 445.467 1165.72 448.594C1163.97 451.696 1161.72 454.38 1158.96 456.645C1156.23 458.885 1153.1 460.621 1149.58 461.852C1146.06 463.083 1142.22 463.699 1138.06 463.699C1131.51 463.699 1125.67 462.148 1120.55 459.045C1115.43 455.919 1111.39 451.45 1108.44 445.639C1105.51 439.829 1104.04 432.898 1104.04 424.847C1104.04 416.771 1105.52 409.84 1108.48 404.054C1111.43 398.243 1115.47 393.787 1120.59 390.685C1125.71 387.558 1131.53 385.994 1138.06 385.994C1142.07 385.994 1145.81 386.573 1149.29 387.73C1152.78 388.863 1155.92 390.537 1158.7 392.753C1161.49 394.944 1163.79 397.628 1165.61 400.804C1167.43 403.955 1168.66 407.563 1169.3 411.625Z" fill="#333333"/>
<path d="M1070.02 405.938V414.801H1039.03V405.938H1070.02ZM1047.34 392.347H1058.38V446.009C1058.38 448.151 1058.7 449.763 1059.34 450.847C1059.98 451.905 1060.81 452.632 1061.82 453.026C1062.85 453.395 1063.97 453.58 1065.18 453.58C1066.06 453.58 1066.84 453.518 1067.5 453.395C1068.17 453.272 1068.69 453.173 1069.06 453.099L1071.05 462.222C1070.41 462.468 1069.5 462.714 1068.32 462.96C1067.14 463.231 1065.66 463.379 1063.89 463.403C1060.98 463.453 1058.27 462.936 1055.76 461.852C1053.25 460.769 1051.22 459.095 1049.67 456.83C1048.12 454.564 1047.34 451.721 1047.34 448.298V392.347Z" fill="#333333"/>
<path d="M1010.5 463.81C1005.01 463.81 1000.29 462.566 996.321 460.08C992.382 457.568 989.354 454.109 987.236 449.702C985.119 445.295 984.06 440.247 984.06 434.56C984.06 428.798 985.143 423.714 987.31 419.307C989.477 414.875 992.53 411.416 996.469 408.929C1000.41 406.442 1005.05 405.199 1010.39 405.199C1014.7 405.199 1018.54 405.999 1021.92 407.599C1025.29 409.175 1028.01 411.391 1030.08 414.247C1032.17 417.103 1033.41 420.439 1033.81 424.256H1023.06C1022.47 421.597 1021.11 419.307 1019 417.386C1016.9 415.466 1014.1 414.506 1010.58 414.506C1007.5 414.506 1004.8 415.318 1002.49 416.943C1000.2 418.544 998.414 420.833 997.134 423.812C995.854 426.767 995.213 430.263 995.213 434.301C995.213 438.438 995.841 442.008 997.097 445.011C998.353 448.015 1000.13 450.342 1002.42 451.991C1004.73 453.641 1007.45 454.466 1010.58 454.466C1012.67 454.466 1014.57 454.084 1016.26 453.321C1017.99 452.533 1019.43 451.413 1020.59 449.96C1021.77 448.508 1022.59 446.759 1023.06 444.716H1033.81C1033.41 448.384 1032.22 451.659 1030.22 454.54C1028.23 457.42 1025.56 459.686 1022.21 461.335C1018.89 462.985 1014.98 463.81 1010.5 463.81Z" fill="#333333"/>
<path d="M952.098 463.81C946.509 463.81 941.696 462.616 937.658 460.227C933.645 457.814 930.542 454.429 928.351 450.071C926.184 445.688 925.101 440.555 925.101 434.67C925.101 428.86 926.184 423.739 928.351 419.307C930.542 414.875 933.595 411.416 937.51 408.929C941.45 406.442 946.054 405.199 951.323 405.199C954.523 405.199 957.626 405.728 960.629 406.787C963.633 407.846 966.329 409.508 968.718 411.773C971.106 414.038 972.989 416.98 974.368 420.599C975.747 424.194 976.436 428.564 976.436 433.71V437.625H931.343V429.352H965.615C965.615 426.447 965.024 423.874 963.843 421.634C962.661 419.368 960.999 417.583 958.857 416.278C956.739 414.973 954.253 414.321 951.397 414.321C948.294 414.321 945.586 415.084 943.272 416.611C940.982 418.113 939.209 420.082 937.953 422.52C936.722 424.933 936.107 427.555 936.107 430.386V436.849C936.107 440.641 936.772 443.866 938.101 446.526C939.455 449.185 941.339 451.216 943.752 452.619C946.165 453.998 948.984 454.688 952.209 454.688C954.302 454.688 956.21 454.392 957.933 453.801C959.657 453.186 961.147 452.275 962.402 451.068C963.658 449.862 964.618 448.372 965.283 446.599L975.735 448.483C974.897 451.561 973.396 454.257 971.229 456.571C969.087 458.861 966.391 460.646 963.141 461.926C959.915 463.182 956.235 463.81 952.098 463.81Z" fill="#333333"/>
<path d="M891.847 462.665V405.938H902.52V414.949H903.111C904.145 411.896 905.967 409.495 908.577 407.747C911.211 405.974 914.19 405.088 917.514 405.088C918.204 405.088 919.016 405.113 919.952 405.162C920.912 405.211 921.663 405.273 922.205 405.347V415.909C921.761 415.786 920.974 415.651 919.841 415.503C918.708 415.33 917.576 415.244 916.443 415.244C913.833 415.244 911.507 415.798 909.463 416.906C907.444 417.99 905.844 419.504 904.662 421.449C903.48 423.369 902.889 425.561 902.889 428.023V462.665H891.847Z" fill="#333333"/>
<path d="M868.028 462.665V405.937H879.071V462.665H868.028ZM873.605 397.185C871.685 397.185 870.035 396.545 868.656 395.264C867.302 393.959 866.625 392.408 866.625 390.611C866.625 388.789 867.302 387.238 868.656 385.957C870.035 384.652 871.685 384 873.605 384C875.526 384 877.163 384.652 878.517 385.957C879.896 387.238 880.585 388.789 880.585 390.611C880.585 392.408 879.896 393.959 878.517 395.264C877.163 396.545 875.526 397.185 873.605 397.185Z" fill="#333333"/>
<path d="M820.425 462.665H795.939V387.028H821.201C828.612 387.028 834.976 388.543 840.295 391.571C845.613 394.575 849.688 398.896 852.519 404.534C855.375 410.148 856.803 416.882 856.803 424.736C856.803 432.615 855.363 439.385 852.482 445.048C849.626 450.711 845.49 455.069 840.073 458.122C834.656 461.151 828.107 462.665 820.425 462.665ZM807.351 452.693H819.797C825.559 452.693 830.348 451.61 834.164 449.443C837.98 447.252 840.836 444.088 842.732 439.952C844.628 435.791 845.576 430.719 845.576 424.736C845.576 418.802 844.628 413.767 842.732 409.631C840.861 405.494 838.066 402.355 834.349 400.213C830.631 398.071 826.014 397 820.499 397H807.351V452.693Z" fill="#333333"/>
<path d="M732.946 483.938V405.938H743.73V415.134H744.654C745.294 413.952 746.217 412.585 747.424 411.034C748.63 409.483 750.304 408.129 752.446 406.972C754.588 405.79 757.42 405.199 760.941 405.199C765.52 405.199 769.607 406.356 773.202 408.67C776.797 410.985 779.616 414.321 781.659 418.679C783.728 423.037 784.762 428.281 784.762 434.412C784.762 440.543 783.74 445.799 781.696 450.182C779.653 454.54 776.846 457.901 773.276 460.264C769.706 462.603 765.631 463.773 761.051 463.773C757.604 463.773 754.785 463.194 752.594 462.037C750.427 460.88 748.728 459.526 747.497 457.974C746.266 456.423 745.318 455.045 744.654 453.838H743.989V483.938H732.946ZM743.767 434.301C743.767 438.29 744.346 441.786 745.503 444.79C746.66 447.794 748.335 450.145 750.526 451.844C752.717 453.518 755.401 454.355 758.577 454.355C761.876 454.355 764.634 453.481 766.85 451.733C769.066 449.96 770.74 447.56 771.872 444.531C773.03 441.503 773.608 438.093 773.608 434.301C773.608 430.559 773.042 427.198 771.909 424.219C770.801 421.24 769.127 418.888 766.887 417.165C764.671 415.441 761.901 414.58 758.577 414.58C755.376 414.58 752.668 415.404 750.452 417.054C748.261 418.704 746.599 421.006 745.466 423.96C744.334 426.915 743.767 430.362 743.767 434.301Z" fill="#333333"/>
<path d="M670.838 483.938V405.938H681.622V415.134H682.546C683.186 413.952 684.109 412.585 685.316 411.034C686.522 409.483 688.196 408.129 690.338 406.972C692.48 405.79 695.312 405.199 698.833 405.199C703.412 405.199 707.499 406.356 711.094 408.67C714.689 410.985 717.508 414.321 719.551 418.679C721.62 423.037 722.654 428.281 722.654 434.412C722.654 440.543 721.632 445.799 719.588 450.182C717.545 454.54 714.738 457.901 711.168 460.264C707.598 462.603 703.523 463.773 698.943 463.773C695.497 463.773 692.677 463.194 690.486 462.037C688.319 460.88 686.621 459.526 685.39 457.974C684.158 456.423 683.211 455.045 682.546 453.838H681.881V483.938H670.838ZM681.659 434.301C681.659 438.29 682.238 441.786 683.395 444.79C684.552 447.794 686.227 450.145 688.418 451.844C690.609 453.518 693.293 454.355 696.469 454.355C699.768 454.355 702.526 453.481 704.742 451.733C706.958 449.96 708.632 447.56 709.765 444.531C710.922 441.503 711.5 438.093 711.5 434.301C711.5 430.559 710.934 427.198 709.801 424.219C708.693 421.24 707.019 418.888 704.779 417.165C702.563 415.441 699.793 414.58 696.469 414.58C693.268 414.58 690.56 415.404 688.344 417.054C686.153 418.704 684.491 421.006 683.358 423.96C682.226 426.915 681.659 430.362 681.659 434.301Z" fill="#333333"/>
<path d="M607.373 462.665H595.26L622.479 387.028H635.663L662.882 462.665H650.768L629.385 400.767H628.794L607.373 462.665ZM609.405 433.045H648.7V442.648H609.405V433.045Z" fill="#333333"/>
<path d="M525.621 428.983V462.665H514.578V405.938H525.178V415.17H525.879C527.184 412.167 529.228 409.754 532.01 407.932C534.817 406.11 538.35 405.199 542.609 405.199C546.475 405.199 549.86 406.011 552.766 407.636C555.671 409.237 557.924 411.625 559.524 414.801C561.125 417.977 561.925 421.904 561.925 426.582V462.665H550.882V427.912C550.882 423.8 549.811 420.587 547.669 418.273C545.527 415.934 542.585 414.764 538.842 414.764C536.282 414.764 534.004 415.318 532.01 416.426C530.04 417.534 528.477 419.159 527.32 421.301C526.187 423.419 525.621 425.979 525.621 428.983Z" fill="#333333"/>
<path d="M451.114 462.665H439L466.219 387.028H479.403L506.622 462.665H494.509L473.125 400.767H472.534L451.114 462.665ZM453.145 433.045H492.44V442.648H453.145V433.045Z" fill="#333333"/>
</svg>
