<?xml version="1.0" encoding="utf-8"?>
<svg xmlns="http://www.w3.org/2000/svg" xmlns:xlink="http://www.w3.org/1999/xlink" version="1.1" id="Layer_1" x="0px" y="0px" viewBox="0 0 612.3 208.6" style="enable-background:new 0 0 612.3 208.6;">
  <style type="text/css">.st0{fill:#00112F;}
	.st1{fill:url(#SVGID_1_);}</style>
  <g>
    <g>
      <path class="st0" d="M76.1,58.7C48.6,58.7,36,79.5,36,79.5V0.1H-0.1v204.7H36v-82.4c0-11.2,5.8-22,15.9-27&#xA;			c3.5-1.7,7.6-2.9,12.2-2.9c15.8,0,28.3,8.8,28.3,29.1v83.2h36.1v-92.2C128.5,78.3,104,58.7,76.1,58.7z"/>
      <path class="st0" d="M257.3,62.5v82.8c0,13.8-9.4,26.4-23,28.9c-1.7,0.3-3.4,0.5-5.3,0.5c-18.3,0-28.3-9-28.3-30.1V62.5h-36.1&#xA;			v92.2c0,34.3,25.1,53.9,52.4,53.9c29.1,0,42.6-24.3,42.6-24.3v20.6h33.8V62.5H257.3z"/>
      <path class="st0" d="M494.6,58.7c-33.3,0-45.4,25.1-45.4,25.1s-9.8-25.1-44.1-25.1c-29.1,0-42.1,24.6-42.1,24.6V62.5h-33.6v142.3&#xA;			h36.1v-83.3c0-10.9,5.8-21.3,15.5-26.1c3.5-1.7,7.6-2.9,12.3-2.9c18,0,25.6,10.5,25.6,30.1v82.2h36.1v-83.3&#xA;			c0-10.9,5.8-21.3,15.6-26.1c3.5-1.7,7.7-2.9,12.4-2.9c18,0,25.6,10.5,25.6,30.1v82.2h36.1v-91.7C544.8,79,523.7,58.7,494.6,58.7z"/>
    </g>
    <linearGradient id="SVGID_1_" gradientUnits="userSpaceOnUse" x1="521.6944" y1="46.3196" x2="612.3345" y2="46.3196">
      <stop offset="0" style="stop-color:#7664FA"/>
      <stop offset="1" style="stop-color:#2A77FA"/>
    </linearGradient>
    <path class="st1" d="M563.2,48.3c9.9,9.6,15.5,22.5,15.9,36.4c0,0.4,0,0.9,0,1.3v6.6h33.3V86c0-0.7,0-1.5,0-2.2&#xA;		c-0.7-26.9-14.3-52.4-36.4-68c-5.8-4.1-12.1-7.5-18.8-10C547.3,2,537,0.1,526.4,0.1h-4.7v33.3h4.7&#xA;		C540.2,33.3,553.3,38.7,563.2,48.3z"/>
  </g>
</svg>