<svg width="218" height="20" viewBox="0 0 218 20" fill="none" xmlns="http://www.w3.org/2000/svg">
<g clip-path="url(#clip0_3514_24130)">
<path d="M103.09 10.8873C102.332 10.7284 101.618 10.5125 100.948 10.2387C100.278 9.96522 99.6923 9.60779 99.1899 9.16641C98.6875 8.72544 98.2909 8.2001 98 7.59115C97.7091 6.98224 97.5637 6.27199 97.5637 5.45993C97.5637 4.55981 97.7752 3.77466 98.1983 3.10367C98.6214 2.43311 99.1767 1.87261 99.8641 1.42255C100.552 0.972449 101.327 0.63283 102.191 0.403268C103.055 0.174092 103.927 0.059082 104.809 0.059082C105.761 0.059082 106.651 0.169525 107.479 0.390024C108.308 0.61091 109.048 0.955096 109.7 1.42255C110.352 1.89038 110.904 2.48152 111.353 3.19634C111.803 3.91116 112.124 4.77159 112.318 5.77763H109.066C108.925 5.1952 108.704 4.71451 108.405 4.33477C108.105 3.95543 107.752 3.6555 107.347 3.43462C106.941 3.21415 106.505 3.0553 106.038 2.95807C105.571 2.86129 105.1 2.81246 104.624 2.81246C104.253 2.81246 103.852 2.85672 103.421 2.94482C102.988 3.03335 102.592 3.17899 102.231 3.38168C101.869 3.58479 101.565 3.84498 101.318 4.16268C101.071 4.48038 100.948 4.8775 100.948 5.35405C100.948 6.09533 101.217 6.66454 101.755 7.06167C102.292 7.45879 102.975 7.7368 103.804 7.89561L106.157 8.34571C107.003 8.50456 107.819 8.7122 108.603 8.96786C109.387 9.22391 110.084 9.57263 110.692 10.0136C111.3 10.455 111.789 11.0023 112.16 11.6551C112.53 12.3082 112.715 13.1203 112.715 14.0907C112.715 15.0616 112.494 15.9134 112.054 16.6455C111.613 17.3782 111.036 17.9871 110.322 18.4723C109.608 18.958 108.797 19.3241 107.889 19.571C106.981 19.818 106.052 19.9417 105.1 19.9417C103.954 19.9417 102.909 19.7915 101.966 19.4916C101.023 19.1917 100.203 18.7548 99.5072 18.1811C98.8106 17.6077 98.2512 16.9062 97.8281 16.0764C97.4051 15.247 97.1406 14.3025 97.0349 13.2436H100.34C100.64 14.5673 101.204 15.5559 102.032 16.2087C102.861 16.8619 103.936 17.1883 105.258 17.1883C105.822 17.1883 106.356 17.1267 106.858 17.003C107.36 16.8797 107.797 16.6944 108.167 16.447C108.537 16.2 108.828 15.8956 109.039 15.5336C109.251 15.1721 109.357 14.7617 109.357 14.3025C109.357 13.8086 109.238 13.3937 109 13.0582C108.762 12.7231 108.453 12.4406 108.074 12.211C107.695 11.9819 107.272 11.8007 106.805 11.6683C106.338 11.5359 105.875 11.4259 105.417 11.3374L103.09 10.8873Z" fill="#00053D"/>
<path d="M120.946 5.03613C121.739 5.03613 122.488 5.15982 123.194 5.40677C123.898 5.65414 124.529 6.00247 125.084 6.45253C125.639 6.9026 126.102 7.44533 126.472 8.08072C126.843 8.71612 127.098 9.43095 127.239 10.2252H124.172C124.031 9.46653 123.683 8.84849 123.128 8.37194C122.572 7.89539 121.819 7.65715 120.867 7.65715C120.373 7.65715 119.91 7.74978 119.479 7.93512C119.046 8.12045 118.668 8.41167 118.342 8.80879C118.015 9.20591 117.76 9.7048 117.575 10.3046C117.39 10.9049 117.297 11.6284 117.297 12.4755C117.297 13.3228 117.39 14.0508 117.575 14.6597C117.76 15.2686 118.015 15.7717 118.342 16.1688C118.668 16.5659 119.046 16.8571 119.479 17.0424C119.91 17.2278 120.373 17.3204 120.867 17.3204C121.66 17.3204 122.378 17.1264 123.022 16.738C123.665 16.35 124.084 15.679 124.278 14.7259H127.345C127.186 15.5557 126.904 16.297 126.499 16.9498C126.093 17.603 125.6 18.1503 125.018 18.5912C124.436 19.0326 123.784 19.3681 123.061 19.5973C122.338 19.8265 121.589 19.9415 120.814 19.9415C119.756 19.9415 118.808 19.7516 117.971 19.3722C117.134 18.9929 116.425 18.4721 115.843 17.8102C115.261 17.1484 114.816 16.3632 114.508 15.454C114.199 14.5451 114.045 13.561 114.045 12.502C114.045 11.443 114.199 10.4593 114.508 9.55007C114.816 8.64127 115.27 7.85155 115.869 7.1806C116.468 6.51004 117.191 5.98509 118.038 5.60535C118.884 5.226 119.853 5.03613 120.946 5.03613Z" fill="#00053D"/>
<path d="M132.31 7.33972C132.715 6.59841 133.284 6.0292 134.016 5.63207C134.747 5.23495 135.615 5.0364 136.62 5.0364C137.484 5.0364 138.22 5.16877 138.828 5.43353C139.436 5.69825 139.934 6.07802 140.322 6.57193C140.71 7.06628 140.996 7.65742 141.181 8.34576C141.366 9.03409 141.459 9.80185 141.459 10.6491V19.5976H138.312V11.4168C138.312 10.9403 138.286 10.4728 138.233 10.0137C138.18 9.55491 138.061 9.14454 137.876 8.78258C137.691 8.42104 137.417 8.13397 137.056 7.92215C136.695 7.71036 136.214 7.60445 135.615 7.60445C135.016 7.60445 134.505 7.71489 134.082 7.93539C133.659 8.15628 133.315 8.46077 133.05 8.84876C132.786 9.23721 132.597 9.70508 132.482 10.252C132.367 10.7992 132.31 11.3904 132.31 12.0257V19.5976H129.164V0.40332H132.31V7.33972Z" fill="#00053D"/>
<path d="M150.383 19.9415C149.22 19.9415 148.193 19.7384 147.303 19.3325C146.412 18.9267 145.672 18.3794 145.081 17.6911C144.491 17.0027 144.041 16.1998 143.733 15.2819C143.424 14.3644 143.27 13.3935 143.27 12.3697C143.27 11.2933 143.438 10.3091 143.773 9.4177C144.107 8.52668 144.575 7.75435 145.174 7.10118C145.773 6.44839 146.496 5.94082 147.342 5.57886C148.188 5.21732 149.131 5.03613 150.171 5.03613C151.282 5.03613 152.269 5.24792 153.133 5.67153C153.996 6.09511 154.719 6.67757 155.301 7.41888C155.883 8.16015 156.315 9.03839 156.597 10.0531C156.879 11.0682 156.984 12.1756 156.914 13.3757H146.47C146.487 13.9408 146.597 14.4657 146.8 14.9509C147.003 15.4366 147.272 15.8556 147.607 16.2085C147.941 16.5618 148.334 16.8352 148.783 17.0292C149.233 17.2236 149.722 17.3204 150.251 17.3204C151.96 17.3204 153.097 16.6586 153.662 15.3348H156.755C156.597 15.8999 156.35 16.46 156.015 17.016C155.68 17.572 155.252 18.0663 154.733 18.4986C154.213 18.9313 153.591 19.2796 152.869 19.5443C152.146 19.8091 151.317 19.9415 150.383 19.9415ZM150.171 7.4983C149.731 7.4983 149.294 7.56902 148.863 7.71009C148.43 7.85155 148.043 8.06748 147.699 8.35873C147.355 8.64994 147.069 9.02058 146.84 9.47068C146.611 9.92074 146.487 10.4548 146.47 11.0724H153.715C153.697 10.5255 153.591 10.0266 153.397 9.57655C153.203 9.12649 152.948 8.75171 152.631 8.45136C152.313 8.15147 151.943 7.91773 151.52 7.74978C151.097 7.58226 150.647 7.4983 150.171 7.4983Z" fill="#00053D"/>
<path d="M168.472 0.40332H171.618V19.5976H168.472V17.7178C168.049 18.424 167.476 18.9713 166.753 19.3593C166.03 19.7473 165.193 19.9417 164.241 19.9417C163.377 19.9417 162.571 19.7696 161.822 19.4255C161.072 19.0813 160.424 18.5828 159.878 17.9296C159.332 17.2769 158.904 16.4913 158.596 15.5734C158.287 14.6559 158.133 13.6233 158.133 12.4758C158.133 11.3465 158.287 10.3227 158.596 9.40473C158.904 8.48722 159.332 7.70169 159.878 7.04848C160.424 6.39573 161.072 5.89684 161.822 5.55265C162.571 5.2085 163.377 5.03641 164.241 5.03641C165.193 5.03641 166.03 5.23084 166.753 5.61883C167.476 6.00728 168.049 6.55458 168.472 7.2603V0.40332ZM168.604 12.4758C168.604 11.6642 168.507 10.9494 168.313 10.3314C168.119 9.71375 167.859 9.20619 167.533 8.80906C167.207 8.41194 166.819 8.11202 166.37 7.90891C165.92 7.70622 165.44 7.60445 164.929 7.60445C163.818 7.60445 162.954 8.0413 162.337 8.91498C161.72 9.78865 161.412 10.9759 161.412 12.4758C161.412 13.994 161.72 15.1895 162.337 16.0632C162.954 16.9368 163.818 17.3737 164.929 17.3737C165.44 17.3737 165.92 17.2723 166.37 17.0692C166.819 16.8665 167.207 16.5621 167.533 16.1558C167.859 15.75 168.119 15.2424 168.313 14.6335C168.507 14.0246 168.604 13.3056 168.604 12.4758Z" fill="#00053D"/>
<path d="M183.305 17.6383C182.899 18.3796 182.34 18.9488 181.626 19.3459C180.912 19.7431 180.07 19.9416 179.101 19.9416C178.255 19.9416 177.532 19.8092 176.933 19.5445C176.333 19.2797 175.839 18.9004 175.452 18.4061C175.064 17.9122 174.782 17.3206 174.606 16.6323C174.429 15.9439 174.341 15.1761 174.341 14.329V5.354H177.488V13.5612C177.488 14.0378 177.514 14.5056 177.567 14.9644C177.62 15.4235 177.735 15.8339 177.911 16.1954C178.087 16.5574 178.351 16.8441 178.704 17.0559C179.057 17.2677 179.524 17.3736 180.106 17.3736C180.687 17.3736 181.185 17.2635 181.6 17.0426C182.014 16.8221 182.344 16.5177 182.591 16.1292C182.838 15.7412 183.018 15.2733 183.133 14.7261C183.248 14.1792 183.305 13.5877 183.305 12.9523V5.354H186.452V19.5974H183.305V17.6383Z" fill="#00053D"/>
<path d="M192.42 19.5976H189.273V0.40332H192.42V19.5976Z" fill="#00053D"/>
<path d="M201.547 19.9415C200.383 19.9415 199.356 19.7384 198.466 19.3325C197.576 18.9267 196.836 18.3794 196.245 17.6911C195.655 17.0027 195.205 16.1998 194.897 15.2819C194.588 14.3644 194.434 13.3935 194.434 12.3697C194.434 11.2933 194.601 10.3091 194.937 9.4177C195.271 8.52668 195.738 7.75435 196.338 7.10118C196.937 6.44839 197.66 5.94082 198.506 5.57886C199.352 5.21732 200.295 5.03613 201.335 5.03613C202.446 5.03613 203.433 5.24792 204.297 5.67153C205.16 6.09511 205.883 6.67757 206.465 7.41888C207.047 8.16015 207.479 9.03839 207.761 10.0531C208.042 11.0682 208.148 12.1756 208.078 13.3757H197.634C197.651 13.9408 197.761 14.4657 197.964 14.9509C198.167 15.4366 198.436 15.8556 198.771 16.2085C199.105 16.5618 199.498 16.8352 199.947 17.0292C200.397 17.2236 200.886 17.3204 201.415 17.3204C203.124 17.3204 204.261 16.6586 204.826 15.3348H207.919C207.761 15.8999 207.514 16.46 207.179 17.016C206.844 17.572 206.416 18.0663 205.897 18.4986C205.376 18.9313 204.755 19.2796 204.032 19.5443C203.309 19.8091 202.481 19.9415 201.547 19.9415ZM201.335 7.4983C200.895 7.4983 200.458 7.56902 200.027 7.71009C199.594 7.85155 199.207 8.06748 198.863 8.35873C198.519 8.64994 198.233 9.02058 198.004 9.47068C197.774 9.92074 197.651 10.4548 197.634 11.0724H204.879C204.861 10.5255 204.755 10.0266 204.561 9.57655C204.367 9.12649 204.112 8.75171 203.794 8.45136C203.477 8.15147 203.107 7.91773 202.684 7.74978C202.261 7.58226 201.811 7.4983 201.335 7.4983Z" fill="#00053D"/>
<path d="M217.887 8.55756C217.359 8.50462 216.856 8.47814 216.38 8.47814C215.887 8.47814 215.446 8.53564 215.058 8.65023C214.67 8.76524 214.344 8.95925 214.08 9.23269C213.815 9.50651 213.613 9.8813 213.472 10.3578C213.33 10.8344 213.26 11.426 213.26 12.1317V19.5976H210.114V5.35412H213.207V7.89568C213.595 7.10147 214.12 6.47931 214.781 6.02922C215.442 5.57915 216.204 5.34541 217.068 5.32764C217.191 5.32764 217.328 5.3322 217.478 5.34088C217.627 5.34998 217.764 5.36322 217.887 5.38057V8.55756Z" fill="#00053D"/>
<path d="M18.2683 19.5968H2.74901C1.66015 19.5968 0.687306 18.9456 0.270633 17.9379C-0.146039 16.9302 0.0822489 15.7805 0.852206 15.0094L11.6018 4.2411H3.89736C1.78087 4.2411 0.0651169 2.52236 0.0651169 0.402179H14.3773C15.466 0.402179 16.4388 1.05318 16.8556 2.0609C17.2723 3.06862 17.0442 4.21804 16.2743 4.98957L5.52466 15.7579H14.436C16.5525 15.7579 18.2683 17.4766 18.2683 19.5968ZM86.8654 7.60015C86.8654 3.47238 83.513 0.114258 79.3925 0.114258C77.1884 0.114258 75.2047 1.07568 73.8357 2.60121C72.4668 1.07568 70.4831 0.114258 68.279 0.114258C64.1585 0.114258 60.8061 3.47238 60.8061 7.60015V19.5968C62.9226 19.5968 64.6384 17.878 64.6384 15.7579V7.60015C64.6384 5.58922 66.2716 3.95318 68.279 3.95318C70.2864 3.95318 71.9196 5.58922 71.9196 7.60015V15.7579C71.9196 17.878 73.6354 19.5968 75.7519 19.5968V7.60015C75.7519 5.58922 77.3851 3.95318 79.3925 3.95318C81.3999 3.95318 83.0331 5.58922 83.0331 7.60015V15.7579C83.0331 17.878 84.7489 19.5968 86.8654 19.5968L86.8654 7.60015ZM58.89 9.99948C58.89 15.4589 54.472 19.8847 49.022 19.8847C43.572 19.8847 39.154 15.4589 39.154 9.99948C39.154 4.54002 43.572 0.114262 49.022 0.114262C54.472 0.114262 58.89 4.54002 58.89 9.99948ZM55.0578 9.99948C55.0578 6.6602 52.3555 3.95318 49.022 3.95318C45.6885 3.95318 42.9862 6.6602 42.9862 9.99948C42.9862 13.3388 45.6885 16.0458 49.022 16.0458C52.3555 16.0458 55.0578 13.3388 55.0578 9.99948ZM37.6211 9.99948C37.6211 15.4589 33.203 19.8847 27.7531 19.8847C22.3031 19.8847 17.885 15.4589 17.885 9.99948C17.885 4.54002 22.3031 0.114262 27.7531 0.114262C33.203 0.114262 37.6211 4.54002 37.6211 9.99948ZM33.7888 9.99948C33.7888 6.6602 31.0865 3.95318 27.7531 3.95318C24.4196 3.95318 21.7173 6.6602 21.7173 9.99948C21.7173 13.3388 24.4196 16.0458 27.7531 16.0458C31.0865 16.0458 33.7888 13.3388 33.7888 9.99948Z" fill="#0B5CFF"/>
</g>
<defs>
<clipPath id="clip0_3514_24130">
<rect width="218" height="20" fill="white"/>
</clipPath>
</defs>
</svg>
